<svg xmlns="http://www.w3.org/2000/svg" xmlns:xlink="http://www.w3.org/1999/xlink" width="20" height="18" viewBox="0 0 20 18">
    <defs>
        <path id="a" d="M8.1 15.966c0 .034.004.12.012.258a2.21 2.21 0 0 1-.031.644.431.431 0 0 1-.127.25.38.38 0 0 1-.259.085h-4.05c-1.004 0-1.862-.363-2.575-1.09A3.605 3.605 0 0 1 0 13.493v-9.07C0 3.4.357 2.527 1.07 1.802 1.783 1.076 2.64.713 3.645.713h4.05c.11 0 .204.041.284.122a.4.4 0 0 1 .121.29c0 .034.004.12.012.258a2.222 2.222 0 0 1-.032.644.426.426 0 0 1-.126.251.377.377 0 0 1-.259.083h-4.05c-.557 0-1.034.203-1.43.606a2.002 2.002 0 0 0-.595 1.456v9.07c0 .566.198 1.05.595 1.455.396.403.873.606 1.43.606h3.948s.049.003.146.012c.097.008.145.022.145.039s.034.04.102.07c.068.03.097.07.088.116a.349.349 0 0 0 .026.175zm11.504-7.588c.16.163.24.357.24.58 0 .223-.08.417-.24.58l-6.885 7.008a.771.771 0 0 1-.57.244.773.773 0 0 1-.569-.244.8.8 0 0 1-.24-.58v-3.71H5.67a.772.772 0 0 1-.57-.245.798.798 0 0 1-.24-.58V6.484a.8.8 0 0 1 .24-.58.773.773 0 0 1 .57-.244h5.67V1.95a.8.8 0 0 1 .24-.58.774.774 0 0 1 .57-.245c.22 0 .41.082.57.245l6.884 7.008z"/>
    </defs>
    <g fill="none" fill-rule="evenodd">
        <mask id="b" fill="#fff">
            <use xlink:href="#a"/>
        </mask>
        <use fill="#D0031B" xlink:href="#a"/>
        <g fill="#D0031B" mask="url(#b)">
            <path d="M-12-13h43.834v43.834H-12z"/>
        </g>
    </g>
</svg>
