<svg xmlns="http://www.w3.org/2000/svg" xmlns:xlink="http://www.w3.org/1999/xlink" width="18" height="14" viewBox="0 0 18 14">
    <defs>
        <path id="a" d="M16.951 12.017L9.753.635A1.381 1.381 0 0 0 8.573 0a1.38 1.38 0 0 0-1.178.634L.196 12.017a1.254 1.254 0 0 0-.018 1.319c.243.41.702.664 1.198.664h14.396a1.39 1.39 0 0 0 1.198-.664c.244-.41.236-.915-.019-1.319zm-7.56-.35H7.756V10.11h1.637v1.556zm0-3.111H7.756v-3.89h1.637v3.89z"/>
    </defs>
    <use fill="#F65659" fill-rule="nonzero" xlink:href="#a"/>
</svg>
